<svg width="48" height="48" viewBox="0 0 48 48" fill="none" xmlns="http://www.w3.org/2000/svg">
<rect width="48" height="48" rx="24" fill="#FAFAFA"/>
<path d="M25 32.3025C24.1525 32.6505 23.1746 32.5389 22.4107 31.9677C19.5894 29.858 14 25.0348 14 20.6944C14 17.8256 16.1053 15.5 19 15.5C20.5 15.5 22 16 24 18C26 16 27.5 15.5 29 15.5C31.8947 15.5 34 17.8256 34 20.6944C34 21.1259 33.9448 21.5621 33.8425 22" stroke="#667085" stroke-width="2" stroke-linecap="round" stroke-linejoin="round"/>
<path d="M26 29C26 29 27 29 28 31C28 31 31.1765 26 34 25" stroke="#667085" stroke-width="2" stroke-linecap="round" stroke-linejoin="round"/>
</svg>
