<svg width="25" height="24" viewBox="0 0 25 24" fill="none" xmlns="http://www.w3.org/2000/svg">
<path d="M13.8855 20.3025C13.038 20.6505 12.0601 20.5389 11.2962 19.9677C8.47492 17.858 2.8855 13.0348 2.8855 8.69444C2.8855 5.82563 4.99076 3.5 7.8855 3.5C9.3855 3.5 10.8855 4 12.8855 6C14.8855 4 16.3855 3.5 17.8855 3.5C20.7802 3.5 22.8855 5.82563 22.8855 8.69444C22.8855 9.12591 22.8303 9.56214 22.728 10" stroke="#B5B9BF" stroke-width="1.5" stroke-linecap="round" stroke-linejoin="round"/>
<path d="M14.8855 17C14.8855 17 15.8855 17 16.8855 19C16.8855 19 20.062 14 22.8855 13" stroke="#B5B9BF" stroke-width="1.5" stroke-linecap="round" stroke-linejoin="round"/>
</svg>
