<svg width="24" height="24" viewBox="0 0 24 24" fill="none" xmlns="http://www.w3.org/2000/svg">
<path d="M18 10.997C17.6078 10.1967 16.5481 9.02147 14.3703 9.07148C14.3703 9.07148 12.6431 8.99646 10.6906 8.99646C8.73814 8.99646 7.82406 9.04218 6.25997 9.07148C5.2587 9.04647 3.35627 9.27154 2.48016 11.3471C1.90443 13.0975 1.87939 16.7735 2.22984 18.624C2.30494 19.5743 2.80558 20.8997 4.35756 21.5999C5.30877 22.1 6.83571 21.8999 7.98718 22M5.98464 8.19624C5.93457 5.82059 5.83443 3.94508 8.58794 2.39466C9.51412 2.01956 10.8909 1.69447 12.5931 2.49469C14.3703 3.56998 14.5917 4.70796 14.7458 4.99537C15.1713 6.12068 14.9461 7.72111 14.9961 8.37129" stroke="#0F1D2F" stroke-width="1.8" stroke-linecap="round"/>
<path d="M15.5 19.7348C15.5 20.9789 14.4911 21.9653 13.2552 21.9653C12.0194 21.9653 11 20.9789 11 19.7348C11 18.4908 12.0194 17.4912 13.2552 17.4912C14.4911 17.4912 15.5 18.4908 15.5 19.7348Z" stroke="#0F1D2F" stroke-width="1.8"/>
<path d="M15.2251 17.7909L17.2156 15.8482M17.2156 15.8482L18.6264 14.4906C18.9501 14.2149 19.6001 13.5692 20.3731 14.3089L22.0001 15.8482M17.2156 15.8482L18.8251 17.3936" stroke="#0F1D2F" stroke-width="1.8" stroke-linecap="round"/>
</svg>
