<svg width="100" height="26" viewBox="0 0 100 26" fill="none" xmlns="http://www.w3.org/2000/svg">
<path d="M0.53 25V0.859999H4.406V21.736H11.274V25H0.53ZM18.2235 25.408C17.0222 25.408 15.9569 25.1247 15.0275 24.558C14.0982 23.9687 13.3729 23.0053 12.8515 21.668C12.3302 20.3307 12.0695 18.5513 12.0695 16.33C12.0695 14.1087 12.3302 12.3407 12.8515 11.026C13.3729 9.71133 14.0982 8.75933 15.0275 8.17C15.9569 7.58067 17.0222 7.286 18.2235 7.286C19.4475 7.286 20.5129 7.58067 21.4195 8.17C22.3489 8.75933 23.0742 9.71133 23.5955 11.026C24.1169 12.3407 24.3775 14.1087 24.3775 16.33C24.3775 18.5513 24.1169 20.3307 23.5955 21.668C23.0742 23.0053 22.3489 23.9687 21.4195 24.558C20.5129 25.1247 19.4475 25.408 18.2235 25.408ZM18.2235 22.45C18.9489 22.45 19.5042 22.1327 19.8895 21.498C20.2975 20.8633 20.5015 19.7413 20.5015 18.132V14.562C20.5015 12.9527 20.2975 11.8307 19.8895 11.196C19.5042 10.5613 18.9489 10.244 18.2235 10.244C17.4982 10.244 16.9315 10.5613 16.5235 11.196C16.1382 11.8307 15.9455 12.9527 15.9455 14.562V18.132C15.9455 19.7413 16.1382 20.8633 16.5235 21.498C16.9315 22.1327 17.4982 22.45 18.2235 22.45ZM29.3548 25L25.1388 7.694H28.9808L31.7008 21.26L34.3868 7.694H38.0928L33.8768 25H29.3548ZM44.9173 25.408C43.7386 25.408 42.6846 25.1247 41.7553 24.558C40.8486 23.9687 40.1346 23.0167 39.6133 21.702C39.1146 20.3647 38.8653 18.5853 38.8653 16.364C38.8653 14.1427 39.1259 12.3747 39.6473 11.06C40.1686 9.72267 40.8826 8.75933 41.7893 8.17C42.6959 7.58067 43.7386 7.286 44.9173 7.286C46.2093 7.286 47.2406 7.58067 48.0113 8.17C48.7819 8.75933 49.3486 9.54133 49.7113 10.516C50.0966 11.468 50.3233 12.5107 50.3913 13.644C50.4593 14.7547 50.4479 15.8427 50.3573 16.908H42.6733V18.132C42.6733 19.7867 42.8659 20.9313 43.2513 21.566C43.6593 22.2007 44.2373 22.518 44.9853 22.518C45.6879 22.518 46.1753 22.2347 46.4473 21.668C46.7419 21.1013 46.9573 20.1493 47.0933 18.812L50.4593 19.084C50.3233 21.3507 49.7453 22.9713 48.7253 23.946C47.7053 24.9207 46.4359 25.408 44.9173 25.408ZM42.6733 14.392V14.494H47.0593V14.29C47.0593 12.6807 46.8893 11.5813 46.5493 10.992C46.2093 10.4027 45.6879 10.108 44.9853 10.108C44.2599 10.108 43.6933 10.4253 43.2853 11.06C42.8773 11.672 42.6733 12.7827 42.6733 14.392Z" fill="#0F1D2F"/>
<path d="M57.739 25V0.859999H63.825C65.9783 0.859999 67.5537 1.42667 68.551 2.56C69.571 3.69333 70.081 5.246 70.081 7.218C70.081 8.374 69.8543 9.428 69.401 10.38C68.9703 11.332 68.2903 12.0687 67.361 12.59C68.4037 13.0887 69.163 13.8253 69.639 14.8C70.115 15.7747 70.353 16.9307 70.353 18.268C70.353 20.24 69.8317 21.8607 68.789 23.13C67.769 24.3767 66.1597 25 63.961 25H57.739ZM63.519 3.988H61.615V11.128H63.519C65.355 11.128 66.273 10.1647 66.273 8.238V6.946C66.273 4.974 65.355 3.988 63.519 3.988ZM61.615 21.872H63.655C65.5137 21.872 66.443 20.818 66.443 18.71V17.282C66.443 15.242 65.5137 14.222 63.655 14.222H61.615V21.872ZM72.6772 5.144V1.54H76.4852V5.144H72.6772ZM72.6772 25V7.694H76.4852V25H72.6772ZM84.2494 25.408C82.9121 25.408 81.8808 25.0567 81.1554 24.354C80.4528 23.6287 80.1014 22.552 80.1014 21.124V10.584H78.2654V7.694H80.2374L80.6794 3.24H83.9094V7.694H86.9014V10.584H83.9094V20.376C83.9094 21.0787 84.0681 21.566 84.3854 21.838C84.7028 22.11 85.1108 22.246 85.6094 22.246C85.8361 22.246 86.0628 22.2347 86.2894 22.212C86.5388 22.1893 86.8221 22.1327 87.1394 22.042V24.898C86.1874 25.238 85.2241 25.408 84.2494 25.408ZM94.2239 25.408C93.0452 25.408 91.9912 25.1247 91.0619 24.558C90.1552 23.9687 89.4412 23.0167 88.9199 21.702C88.4212 20.3647 88.1719 18.5853 88.1719 16.364C88.1719 14.1427 88.4326 12.3747 88.9539 11.06C89.4752 9.72267 90.1892 8.75933 91.0959 8.17C92.0026 7.58067 93.0452 7.286 94.2239 7.286C95.5159 7.286 96.5472 7.58067 97.3179 8.17C98.0886 8.75933 98.6552 9.54133 99.0179 10.516C99.4032 11.468 99.6299 12.5107 99.6979 13.644C99.7659 14.7547 99.7546 15.8427 99.6639 16.908H91.9799V18.132C91.9799 19.7867 92.1726 20.9313 92.5579 21.566C92.9659 22.2007 93.5439 22.518 94.2919 22.518C94.9946 22.518 95.4819 22.2347 95.7539 21.668C96.0486 21.1013 96.2639 20.1493 96.3999 18.812L99.7659 19.084C99.6299 21.3507 99.0519 22.9713 98.0319 23.946C97.0119 24.9207 95.7426 25.408 94.2239 25.408ZM91.9799 14.392V14.494H96.3659V14.29C96.3659 12.6807 96.1959 11.5813 95.8559 10.992C95.5159 10.4027 94.9946 10.108 94.2919 10.108C93.5666 10.108 92.9999 10.4253 92.5919 11.06C92.1839 11.672 91.9799 12.7827 91.9799 14.392Z" fill="#58B7C2"/>
</svg>
