<svg width="24" height="25" viewBox="0 0 24 25" fill="none" xmlns="http://www.w3.org/2000/svg">
<path d="M23.7408 11.8384H0.259583V13.1626C0.259583 13.7747 0.593829 14.3376 0.914082 14.8934C1.06161 15.5807 1.27112 16.2448 1.537 16.8793C1.55779 17.6361 1.48142 18.4298 1.83086 19.0339C2.32863 19.8943 3.56567 20.2001 4.26415 20.8986C4.96263 21.5971 5.26848 22.8337 6.12889 23.3319C6.9773 23.8229 8.19874 23.4738 9.1675 23.7329C10.1039 23.9832 10.9847 24.9032 12.0002 24.9032C13.0157 24.9032 13.8965 23.9832 14.8329 23.7329C15.8017 23.4738 17.0231 23.8225 17.8715 23.3319C18.7319 22.8341 19.0378 21.5971 19.7362 20.8986C20.4347 20.2001 21.6714 19.8943 22.1695 19.0339C22.519 18.4298 22.443 17.6361 22.4638 16.8793C22.7297 16.2448 22.9392 15.5807 23.0867 14.8934C23.407 14.3376 23.7412 13.7743 23.7412 13.1626V11.8384H23.7408Z" fill="#D69411"/>
<path d="M23.7408 11.8383C23.7408 12.8538 22.8208 13.7346 22.5705 14.671C22.3115 15.6397 22.6601 16.8612 22.1695 17.7096C21.6718 18.57 20.4347 18.8758 19.7362 19.5743C19.0378 20.2728 18.7319 21.5094 17.8715 22.0076C17.0231 22.4986 15.8017 22.1495 14.8329 22.4086C13.8965 22.6589 13.0157 23.5789 12.0002 23.5789C10.9847 23.5789 10.1039 22.6589 9.1675 22.4086C8.19874 22.1495 6.9773 22.4982 6.12889 22.0076C5.26848 21.5098 4.96263 20.2728 4.26415 19.5743C3.56567 18.8758 2.32903 18.57 1.83086 17.7096C1.33989 16.8612 1.68893 15.6397 1.42985 14.671C1.17956 13.7346 0.259583 12.8538 0.259583 11.8383C0.259583 10.8227 1.17956 9.94194 1.42985 9.00557C1.68893 8.03681 1.34029 6.81537 1.83086 5.96696C2.32863 5.10656 3.56567 4.8007 4.26415 4.10222C4.96263 3.40374 5.26848 2.16711 6.12889 1.66894C6.9773 1.17796 8.19874 1.527 9.1675 1.26792C10.1039 1.01763 10.9847 0.0976562 12.0002 0.0976562C13.0157 0.0976562 13.8965 1.01763 14.8329 1.26792C15.8017 1.527 17.0231 1.17836 17.8715 1.66894C18.7319 2.16671 19.0378 3.40374 19.7362 4.10222C20.4347 4.8007 21.6714 5.10656 22.1695 5.96696C22.6605 6.81537 22.3115 8.03681 22.5705 9.00557C22.8208 9.94194 23.7408 10.8227 23.7408 11.8383Z" fill="#F5D455"/>
<path d="M12.0002 21.53C11.8479 21.4793 11.5412 21.3025 11.3317 21.1818C10.8671 20.9139 10.3406 20.6101 9.69407 20.4373C9.03198 20.2602 8.38587 20.2582 7.86691 20.2562C7.64141 20.2554 7.31516 20.2542 7.15404 20.2278C7.04928 20.1007 6.88296 19.8136 6.76781 19.6149C6.50913 19.1679 6.18688 18.6118 5.7063 18.1312C5.22572 17.6506 4.66918 17.3284 4.22258 17.0697C4.02427 16.9549 3.73721 16.7886 3.61006 16.6835C3.58368 16.5219 3.58248 16.1961 3.58168 15.9706C3.57968 15.4516 3.57768 14.8055 3.40056 14.1434C3.22784 13.4969 2.92398 12.9704 2.6561 12.5058C2.53536 12.2963 2.35864 11.99 2.30786 11.8373C2.35864 11.685 2.53536 11.3783 2.6561 11.1688C2.92398 10.7042 3.22784 10.1776 3.40056 9.53114C3.57768 8.86905 3.57968 8.22294 3.58168 7.70398C3.58248 7.47848 3.58368 7.15223 3.61006 6.99111C3.73721 6.88636 4.02427 6.72003 4.22298 6.60488C4.66998 6.3462 5.22612 6.02395 5.7067 5.54337C6.18728 5.06279 6.50953 4.50625 6.76821 4.05965C6.88296 3.86134 7.04929 3.57387 7.15444 3.44673C7.31596 3.42035 7.64181 3.41915 7.86731 3.41835C8.38627 3.41635 9.03238 3.41435 9.69447 3.23723C10.341 3.06451 10.8675 2.76065 11.3321 2.49277C11.5416 2.37203 11.8479 2.19531 12.0006 2.14453C12.1529 2.19531 12.4596 2.37203 12.6691 2.49277C13.1337 2.76065 13.6603 3.06451 14.3068 3.23723C14.9689 3.41435 15.615 3.41635 16.1339 3.41835C16.3594 3.41915 16.6857 3.42035 16.8468 3.44673C16.9515 3.57387 17.1179 3.86094 17.233 4.05965C17.4917 4.50665 17.8139 5.06279 18.2945 5.54337C18.7751 6.02395 19.3312 6.3462 19.7782 6.60488C19.9766 6.71963 20.264 6.88596 20.3908 6.99111C20.4172 7.15263 20.4184 7.47848 20.4192 7.70398C20.4212 8.22294 20.4231 8.86905 20.6003 9.53114C20.773 10.1776 21.0768 10.7042 21.3447 11.1688C21.4655 11.3783 21.6422 11.6846 21.693 11.8373C21.6422 11.9896 21.4655 12.2963 21.3447 12.5058C21.0768 12.9704 20.773 13.4969 20.6003 14.1434C20.4231 14.8055 20.4212 15.4516 20.4192 15.9706C20.4184 16.1961 20.4172 16.5223 20.3908 16.6835C20.2636 16.7882 19.9766 16.9545 19.7782 17.0697C19.3312 17.3284 18.7751 17.6506 18.2945 18.1312C17.8139 18.6118 17.4917 19.1679 17.233 19.6149C17.1183 19.8132 16.9519 20.1007 16.8468 20.2274C16.6853 20.2538 16.3594 20.255 16.1339 20.2558C15.615 20.2578 14.9689 20.2598 14.3068 20.4369C13.6603 20.6097 13.1337 20.9135 12.6691 21.1814C12.4592 21.3025 12.1525 21.4797 12.0002 21.53Z" fill="#58B7C2"/>
<path d="M13.9807 9.4567C14.5341 10.01 16.3292 10.8625 17.1665 11.2431C17.3344 11.3194 17.3344 11.5569 17.1665 11.6333C16.3292 12.0139 14.5337 12.8667 13.9807 13.4197C13.4274 13.973 12.575 15.7682 12.1943 16.6054C12.118 16.7733 11.8805 16.7733 11.8041 16.6054C11.4235 15.7682 10.5707 13.9726 10.0177 13.4197C9.46439 12.8663 7.66921 12.0139 6.832 11.6333C6.66407 11.5569 6.66407 11.3194 6.832 11.2431C7.66921 10.8625 9.46479 10.0096 10.0177 9.4567C10.5711 8.90335 11.4235 7.10818 11.8041 6.27096C11.8805 6.10304 12.118 6.10304 12.1943 6.27096C12.5746 7.10818 13.4274 8.90335 13.9807 9.4567Z" fill="#F5D455"/>
<path d="M11.9986 6.14502C11.9203 6.14502 11.8415 6.187 11.8035 6.27096C11.4229 7.10818 10.5701 8.90375 10.0171 9.4567C9.46378 10.01 7.6686 10.8625 6.83139 11.2431C6.66346 11.3194 6.66346 11.5569 6.83139 11.6333C7.6686 12.0139 9.46418 12.8667 10.0171 13.4197C10.5705 13.973 11.4229 15.7682 11.8035 16.6054C11.8415 16.6894 11.9203 16.7314 11.9986 16.7314V6.14502Z" fill="#F5D455"/>
<path d="M18.6739 5.37657C18.871 5.57368 19.5115 5.87794 19.8102 6.01388C19.8702 6.04107 19.8702 6.12583 19.8102 6.15301C19.5115 6.28895 18.8714 6.59281 18.6739 6.79032C18.4768 6.98743 18.1726 7.62794 18.0366 7.9266C18.0094 7.98657 17.9247 7.98657 17.8975 7.9266C17.7615 7.62794 17.4577 6.98783 17.2602 6.79032C17.0631 6.59321 16.4226 6.28895 16.1239 6.15301C16.0639 6.12583 16.0639 6.04107 16.1239 6.01388C16.4226 5.87794 17.0627 5.57408 17.2602 5.37657C17.4573 5.17946 17.7615 4.53895 17.8975 4.24029C17.9247 4.18032 18.0094 4.18032 18.0366 4.24029C18.1722 4.53895 18.4764 5.17946 18.6739 5.37657Z" fill="white"/>
</svg>
