<svg width="48" height="48" viewBox="0 0 48 48" fill="none" xmlns="http://www.w3.org/2000/svg">
<rect width="48" height="48" rx="24" fill="#FAFAFA"/>
<path d="M23 20H25" stroke="#667085" stroke-width="2" stroke-linecap="round"/>
<path d="M14 23C14 19.7002 14 18.0502 15.0251 17.0251C16.0503 16 17.7002 16 21 16H22C25.2998 16 26.9497 16 27.9749 17.0251C29 18.0502 29 19.7002 29 23V25C29 28.2998 29 29.9497 27.9749 30.9749C26.9497 32 25.2998 32 22 32H21C17.7002 32 16.0503 32 15.0251 30.9749C14 29.9497 14 28.2998 14 25V23Z" stroke="#667085" stroke-width="2"/>
<path d="M29 20.9059L29.1259 20.802C31.2417 19.0562 32.2996 18.1834 33.1498 18.6048C34 19.0263 34 20.4236 34 23.2181V24.7819C34 27.5765 34 28.9737 33.1498 29.3952C32.2996 29.8166 31.2417 28.9438 29.1259 27.198L29 27.0941" stroke="#667085" stroke-width="2" stroke-linecap="round"/>
</svg>
