<svg width="24" height="24" viewBox="0 0 24 24" fill="none" xmlns="http://www.w3.org/2000/svg">
<path d="M18.7088 3.49534C16.8165 2.55382 14.5009 2 12 2C9.4991 2 7.1835 2.55382 5.29116 3.49534C4.36318 3.95706 3.89919 4.18792 3.4496 4.91378C3 5.63965 3 6.34248 3 7.74814V11.2371C3 16.9205 7.54236 20.0804 10.173 21.4338C10.9067 21.8113 11.2735 22 12 22C12.7265 22 13.0933 21.8113 13.8269 21.4338C16.4576 20.0804 21 16.9205 21 11.2371V7.74814C21 6.34249 21 5.63966 20.5504 4.91378C20.1008 4.18791 19.6368 3.95706 18.7088 3.49534Z" stroke="#0F1D2F" stroke-width="1.8" stroke-linecap="round" stroke-linejoin="round"/>
<path d="M9.52514 13.4739C10.1585 14.1073 11.0335 14.499 12 14.499C13.933 14.499 15.5 12.9319 15.5 10.999C15.5 10.0325 15.1083 9.15752 14.4749 8.52415M9.52514 13.4739C8.89175 12.8405 8.5 11.9655 8.5 10.999C8.5 9.06602 10.067 7.49902 12 7.49902C12.9665 7.49902 13.8415 7.89077 14.4749 8.52415M9.52514 13.4739L14.4749 8.52415" stroke="#0F1D2F" stroke-width="1.8" stroke-linecap="round" stroke-linejoin="round"/>
</svg>
