<svg width="25" height="24" viewBox="0 0 25 24" fill="none" xmlns="http://www.w3.org/2000/svg">
<path d="M3.8855 8.5H15.8855C18.7139 8.5 20.1281 8.5 21.0068 9.37868C21.8855 10.2574 21.8855 11.6716 21.8855 14.5V15.5C21.8855 18.3284 21.8855 19.7426 21.0068 20.6213C20.1281 21.5 18.7139 21.5 15.8855 21.5H9.8855C7.05707 21.5 5.64286 21.5 4.76418 20.6213C3.8855 19.7426 3.8855 18.3284 3.8855 15.5V8.5Z" stroke="#58B7C2" stroke-width="2" stroke-linecap="square" stroke-linejoin="round"/>
<path d="M15.8855 8.49833V4.1103C15.8855 3.22096 15.1645 2.5 14.2752 2.5C14.0191 2.5 13.7667 2.56108 13.5389 2.67818L4.6478 7.24927C4.17974 7.48991 3.8855 7.97203 3.8855 8.49833" stroke="#58B7C2" stroke-width="2" stroke-linecap="round" stroke-linejoin="round"/>
</svg>
