<svg width="20" height="20" viewBox="0 0 20 20" fill="none" xmlns="http://www.w3.org/2000/svg">
<path d="M1.66675 10.4167C1.66675 9.49617 2.41294 8.75 3.33341 8.75C4.71412 8.75 5.83341 9.86925 5.83341 11.25V14.5833C5.83341 15.9641 4.71412 17.0833 3.33341 17.0833C2.41294 17.0833 1.66675 16.3372 1.66675 15.4167V10.4167Z" stroke="#667085" stroke-width="1.5" stroke-linecap="round" stroke-linejoin="round"/>
<path d="M12.8988 6.5053L12.6769 7.22203C12.4951 7.80934 12.4042 8.10299 12.4741 8.33492C12.5307 8.5225 12.6548 8.68425 12.8241 8.79067C13.0333 8.92217 13.3497 8.92217 13.9825 8.92217H14.3192C16.4609 8.92217 17.5318 8.92217 18.0376 9.55617C18.0953 9.62858 18.1468 9.70567 18.1913 9.7865C18.5803 10.4935 18.138 11.446 17.2533 13.351C16.4413 15.0992 16.0353 15.9732 15.2816 16.4877C15.2087 16.5375 15.1337 16.5845 15.0568 16.6285C14.2633 17.0834 13.2801 17.0834 11.3136 17.0834H10.8871C8.50467 17.0834 7.31349 17.0834 6.57337 16.3663C5.83325 15.6492 5.83325 14.495 5.83325 12.1867V11.3753C5.83325 10.1622 5.83325 9.55575 6.04854 9.00058C6.26382 8.44542 6.67604 7.98895 7.50049 7.07602L10.91 3.30055C10.9955 3.20587 11.0383 3.15852 11.076 3.12571C11.4278 2.81948 11.9709 2.85395 12.2786 3.20204C12.3116 3.23933 12.3476 3.29167 12.4196 3.39637C12.5323 3.56012 12.5886 3.64201 12.6378 3.72312C13.0773 4.44936 13.2103 5.31205 13.0089 6.13104C12.9864 6.22252 12.9573 6.31683 12.8988 6.5053Z" stroke="#667085" stroke-width="1.5" stroke-linecap="round" stroke-linejoin="round"/>
</svg>
