<svg width="38" height="38" viewBox="0 0 38 38" fill="none" xmlns="http://www.w3.org/2000/svg">
<rect width="38" height="38" rx="19" fill="#F9F9F9"/>
<path d="M11.5 14.8333H14" stroke="#0F1D2F" stroke-width="1.5" stroke-linecap="round" stroke-linejoin="round"/>
<path d="M11.5 23.1667H16.5" stroke="#0F1D2F" stroke-width="1.5" stroke-linecap="round" stroke-linejoin="round"/>
<path d="M24 23.1667H26.5" stroke="#0F1D2F" stroke-width="1.5" stroke-linecap="round" stroke-linejoin="round"/>
<path d="M21.5 14.8333H26.5" stroke="#0F1D2F" stroke-width="1.5" stroke-linecap="round" stroke-linejoin="round"/>
<path d="M14 14.8333C14 14.0567 14 13.6684 14.1269 13.3621C14.296 12.9537 14.6205 12.6293 15.0289 12.4601C15.3352 12.3333 15.7234 12.3333 16.5 12.3333C17.2766 12.3333 17.6648 12.3333 17.9712 12.4601C18.3795 12.6293 18.704 12.9537 18.8732 13.3621C19 13.6684 19 14.0567 19 14.8333C19 15.6098 19 15.9981 18.8732 16.3044C18.704 16.7128 18.3795 17.0372 17.9712 17.2064C17.6648 17.3333 17.2766 17.3333 16.5 17.3333C15.7234 17.3333 15.3352 17.3333 15.0289 17.2064C14.6205 17.0372 14.296 16.7128 14.1269 16.3044C14 15.9981 14 15.6098 14 14.8333Z" stroke="#0F1D2F" stroke-width="1.5"/>
<path d="M19 23.1667C19 22.3902 19 22.0019 19.1268 21.6956C19.296 21.2872 19.6205 20.9627 20.0288 20.7936C20.3352 20.6667 20.7234 20.6667 21.5 20.6667C22.2766 20.6667 22.6648 20.6667 22.9712 20.7936C23.3795 20.9627 23.704 21.2872 23.8732 21.6956C24 22.0019 24 22.3902 24 23.1667C24 23.9433 24 24.3316 23.8732 24.6379C23.704 25.0462 23.3795 25.3707 22.9712 25.5399C22.6648 25.6667 22.2766 25.6667 21.5 25.6667C20.7234 25.6667 20.3352 25.6667 20.0288 25.5399C19.6205 25.3707 19.296 25.0462 19.1268 24.6379C19 24.3316 19 23.9433 19 23.1667Z" stroke="#0F1D2F" stroke-width="1.5"/>
</svg>
