<svg width="375" height="266" viewBox="0 0 375 266" fill="none" xmlns="http://www.w3.org/2000/svg">
<path d="M375 264.932C337.628 239.265 267.878 222 188 222C107.404 222 37.1192 239.577 0 265.626V0H375V264.932Z" fill="#58B7C2" fill-opacity="0.3"/>
<path d="M254.361 180.754H121.639V146.13L188 123.048L254.361 146.13V180.754Z" fill="#58B7C2"/>
<path d="M188 180.754H121.639V146.13L188 123.048V180.754Z" fill="#58B7C2"/>
<path d="M188 172.098C186.407 172.096 185.116 170.803 185.117 169.21C185.118 168.601 185.311 168.008 185.669 167.516L188.032 164.267C192.815 157.653 192.997 148.766 188.488 141.961C187.603 140.636 187.961 138.844 189.287 137.959C190.613 137.075 192.405 137.433 193.289 138.759C199.135 147.572 198.905 159.087 192.712 167.66L190.352 170.909C189.805 171.661 188.93 172.104 188 172.098Z" fill="#F1CF4A"/>
<path d="M164.918 151.901C164.23 151.9 163.565 151.654 163.043 151.206L158.181 147.039C147.801 138.154 141.829 125.171 141.836 111.507C141.836 109.914 143.128 108.622 144.721 108.622C146.315 108.622 147.606 109.914 147.606 111.507C147.596 123.49 152.832 134.876 161.935 142.668L166.796 146.837C167.999 147.882 168.128 149.705 167.083 150.908C166.538 151.535 165.749 151.897 164.918 151.901Z" fill="#F1CF4A"/>
<path d="M211.082 151.901C209.489 151.898 208.199 150.604 208.202 149.011C208.205 147.661 209.142 146.494 210.459 146.2L216.518 144.855C227.312 142.419 235.489 133.587 237.09 122.639C237.316 121.061 238.779 119.966 240.356 120.192C241.934 120.418 243.029 121.881 242.803 123.458C240.853 136.779 230.902 147.524 217.77 150.487L211.711 151.832C211.505 151.878 211.294 151.901 211.082 151.901Z" fill="#F1CF4A"/>
<path d="M205.312 146.131C204.806 146.134 204.308 146.003 203.869 145.75C202.486 144.959 202.006 143.197 202.796 141.814L214.337 121.618C215.16 120.253 216.933 119.814 218.298 120.637C219.616 121.433 220.078 123.124 219.346 124.48L207.805 144.677C207.293 145.572 206.343 146.126 205.312 146.131Z" fill="#F1CF4A"/>
<path d="M222.623 114.393C224.217 114.393 225.509 113.101 225.509 111.507C225.509 109.914 224.217 108.622 222.623 108.622C221.03 108.622 219.738 109.914 219.738 111.507C219.738 113.101 221.03 114.393 222.623 114.393Z" fill="#F1CF4A"/>
<path d="M167.803 91.3106C169.397 91.3106 170.688 90.0188 170.688 88.4253C170.688 86.8318 169.397 85.54 167.803 85.54C166.21 85.54 164.918 86.8318 164.918 88.4253C164.918 90.0188 166.21 91.3106 167.803 91.3106Z" fill="#F1CF4A"/>
<path d="M208.197 91.3106C209.791 91.3106 211.082 90.0188 211.082 88.4253C211.082 86.8318 209.791 85.54 208.197 85.54C206.604 85.54 205.312 86.8318 205.312 88.4253C205.312 90.0188 206.604 91.3106 208.197 91.3106Z" fill="#F1CF4A"/>
<path d="M237.049 149.016C235.456 149.014 234.166 147.721 234.167 146.127C234.168 145.429 234.422 144.754 234.883 144.229L255.079 121.147C256.198 120.012 258.024 119.998 259.16 121.116C260.205 122.145 260.312 123.795 259.407 124.95L239.211 148.032C238.665 148.655 237.878 149.013 237.049 149.016Z" fill="#F1CF4A"/>
<path d="M265.902 117.278C267.496 117.278 268.787 115.986 268.787 114.393C268.787 112.799 267.496 111.507 265.902 111.507C264.309 111.507 263.017 112.799 263.017 114.393C263.017 115.986 264.309 117.278 265.902 117.278Z" fill="#F1CF4A"/>
<path d="M159.147 120.163C160.741 120.163 162.033 118.871 162.033 117.278C162.033 115.684 160.741 114.393 159.147 114.393C157.554 114.393 156.262 115.684 156.262 117.278C156.262 118.871 157.554 120.163 159.147 120.163Z" fill="#F1CF4A"/>
<path d="M112.983 91.3106C114.577 91.3106 115.869 90.0188 115.869 88.4253C115.869 86.8318 114.577 85.54 112.983 85.54C111.39 85.54 110.098 86.8318 110.098 88.4253C110.098 90.0188 111.39 91.3106 112.983 91.3106Z" fill="#F1CF4A"/>
<path d="M144.721 146.13C143.708 146.131 142.768 145.6 142.246 144.731L133.59 130.305C132.745 128.954 133.154 127.174 134.505 126.329C135.856 125.483 137.637 125.893 138.482 127.244C138.5 127.273 138.518 127.303 138.535 127.333L147.191 141.76C148.012 143.125 147.57 144.898 146.204 145.719C145.756 145.987 145.244 146.13 144.721 146.13Z" fill="#F1CF4A"/>
<path d="M121.639 226.918L188 250V169.212L121.639 146.13V226.918Z" fill="#58B7C2"/>
<path d="M254.361 226.918L188 250V169.212L254.361 146.13V226.918Z" fill="#95D5B2"/>
<path d="M254.361 188.573L211.082 203.836C211.092 215.31 220.382 224.613 231.856 224.638C234.101 224.632 236.331 224.272 238.463 223.571L254.361 218.262V226.918L188 250V169.212L254.361 146.13V188.573Z" fill="#58B7C2"/>
<path d="M271.673 172.098L205.312 198.065L188 169.212L254.361 146.13L271.673 172.098Z" fill="#D8F3DC"/>
<path d="M104.328 172.098L170.689 198.065L188 169.212L121.639 146.13L104.328 172.098Z" fill="#D8F3DC"/>
<path d="M188 232.688L121.639 209.606V195.18L188 218.262V232.688Z" fill="#C62828"/>
<path d="M188 232.688L254.361 209.606V195.18L188 218.262V232.688Z" fill="#EF5350"/>
<path d="M220.661 221.32L188 232.688V218.262L212.006 209.923C213.43 214.638 216.502 218.683 220.661 221.32Z" fill="#E53935"/>
<path d="M271.673 172.098L205.312 198.065L188 169.212L199.945 165.058C206.522 175.755 219.812 180.214 231.51 175.647L265.239 162.461L271.673 172.098Z" fill="#58B7C2"/>
<path d="M176.228 188.832L170.689 198.065L104.328 172.098L121.639 146.13L130.67 149.275C126.601 159.673 131.729 171.4 142.125 175.473L176.228 188.832Z" fill="#58B7C2"/>
<path d="M182.23 157.671C180.636 157.671 179.344 156.379 179.344 154.786V154.292C179.358 149.829 177.584 145.546 174.419 142.399C173.312 141.253 173.344 139.426 174.49 138.32C175.608 137.24 177.381 137.24 178.499 138.32C182.749 142.547 185.131 148.298 185.115 154.292V154.786C185.115 156.379 183.823 157.671 182.23 157.671Z" fill="#F1CF4A"/>
<path d="M218.388 74.2871H157.613V77.7144C157.613 79.2987 158.478 80.7558 159.307 82.1942C159.689 83.973 160.231 85.6918 160.919 87.3341C160.973 89.293 160.775 91.3471 161.68 92.9108C162.968 95.1377 166.17 95.9293 167.978 97.7372C169.786 99.545 170.577 102.746 172.804 104.035C175 105.306 178.161 104.402 180.669 105.073C183.092 105.721 185.372 108.102 188.001 108.102C190.629 108.102 192.909 105.721 195.332 105.073C197.84 104.402 201.001 105.305 203.197 104.035C205.424 102.747 206.215 99.545 208.023 97.7372C209.831 95.9293 213.032 95.1377 214.321 92.9108C215.226 91.3471 215.029 89.293 215.083 87.3341C215.771 85.6918 216.313 83.973 216.695 82.1942C217.524 80.7558 218.389 79.2977 218.389 77.7144V74.2871H218.388Z" fill="#D69411"/>
<path d="M218.388 74.2869C218.388 76.9153 216.007 79.195 215.359 81.6186C214.689 84.1259 215.591 87.2873 214.321 89.4832C213.033 91.7101 209.831 92.5018 208.023 94.3096C206.215 96.1174 205.424 99.3181 203.197 100.608C201.001 101.878 197.84 100.975 195.332 101.645C192.909 102.293 190.629 104.674 188.001 104.674C185.372 104.674 183.092 102.293 180.669 101.645C178.161 100.975 175 101.877 172.804 100.608C170.577 99.3192 169.786 96.1174 167.978 94.3096C166.17 92.5018 162.969 91.7101 161.68 89.4832C160.409 87.2873 161.313 84.1259 160.642 81.6186C159.994 79.195 157.613 76.9153 157.613 74.2869C157.613 71.6584 159.994 69.3787 160.642 66.9552C161.313 64.4478 160.41 61.2865 161.68 59.0906C162.968 56.8636 166.17 56.072 167.978 54.2642C169.786 52.4563 170.577 49.2556 172.804 47.9663C175 46.6955 178.161 47.5989 180.669 46.9283C183.092 46.2805 185.372 43.8994 188.001 43.8994C190.629 43.8994 192.909 46.2805 195.332 46.9283C197.84 47.5989 201.001 46.6965 203.197 47.9663C205.424 49.2546 206.215 52.4563 208.023 54.2642C209.831 56.072 213.032 56.8636 214.321 59.0906C215.592 61.2865 214.689 64.4478 215.359 66.9552C216.007 69.3787 218.388 71.6584 218.388 74.2869Z" fill="#F1CF4A"/>
<path d="M188 99.372C187.606 99.2406 186.812 98.7832 186.27 98.4707C185.068 97.7773 183.705 96.9909 182.032 96.5438C180.318 96.0854 178.646 96.0802 177.302 96.0751C176.719 96.073 175.874 96.0699 175.457 96.0016C175.186 95.6725 174.756 94.9295 174.458 94.4152C173.788 93.2583 172.954 91.8189 171.71 90.575C170.466 89.3311 169.026 88.4971 167.87 87.8276C167.357 87.5306 166.614 87.1001 166.285 86.8279C166.216 86.4099 166.213 85.5665 166.211 84.9828C166.206 83.6396 166.201 81.9674 165.742 80.2537C165.295 78.5804 164.509 77.2176 163.816 76.0151C163.503 75.4728 163.046 74.6802 162.914 74.2849C163.046 73.8906 163.503 73.0969 163.816 72.5547C164.509 71.3522 165.295 69.9893 165.742 68.316C166.201 66.6024 166.206 64.9301 166.211 63.5869C166.213 63.0033 166.216 62.1589 166.285 61.7418C166.614 61.4707 167.357 61.0402 167.871 60.7422C169.028 60.0727 170.467 59.2386 171.711 57.9948C172.955 56.7509 173.789 55.3104 174.459 54.1545C174.756 53.6413 175.186 52.8972 175.458 52.5682C175.876 52.4999 176.72 52.4968 177.303 52.4947C178.647 52.4895 180.319 52.4843 182.033 52.0259C183.706 51.5789 185.069 50.7924 186.271 50.0991C186.813 49.7866 187.606 49.3292 188.001 49.1978C188.396 49.3292 189.189 49.7866 189.732 50.0991C190.934 50.7924 192.297 51.5789 193.97 52.0259C195.684 52.4843 197.356 52.4895 198.699 52.4947C199.283 52.4968 200.127 52.4999 200.544 52.5682C200.816 52.8972 201.246 53.6402 201.544 54.1545C202.214 55.3115 203.048 56.7509 204.292 57.9948C205.535 59.2386 206.975 60.0727 208.132 60.7422C208.645 61.0392 209.389 61.4697 209.717 61.7418C209.785 62.1599 209.789 63.0033 209.791 63.5869C209.796 64.9301 209.801 66.6024 210.259 68.316C210.706 69.9893 211.493 71.3522 212.186 72.5547C212.499 73.0969 212.956 73.8896 213.088 74.2849C212.956 74.6791 212.499 75.4728 212.186 76.0151C211.493 77.2176 210.706 78.5804 210.259 80.2537C209.801 81.9674 209.796 83.6396 209.791 84.9828C209.789 85.5665 209.785 86.4109 209.717 86.8279C209.388 87.099 208.645 87.5295 208.132 87.8276C206.975 88.4971 205.535 89.3311 204.292 90.575C203.048 91.8189 202.214 93.2583 201.544 94.4152C201.247 94.9285 200.817 95.6725 200.544 96.0006C200.126 96.0689 199.283 96.072 198.699 96.074C197.356 96.0792 195.684 96.0844 193.97 96.5428C192.297 96.9898 190.934 97.7763 189.732 98.4696C189.188 98.7832 188.395 99.2416 188 99.372Z" fill="#58B7C2"/>
<path d="M193.127 68.1227C194.559 69.5549 199.205 71.7611 201.372 72.7462C201.807 72.9439 201.807 73.5586 201.372 73.7562C199.205 74.7414 194.558 76.9486 193.127 78.3798C191.694 79.812 189.488 84.4583 188.503 86.6252C188.305 87.0599 187.691 87.0599 187.493 86.6252C186.508 84.4583 184.301 79.811 182.87 78.3798C181.437 76.9476 176.791 74.7414 174.624 73.7562C174.189 73.5586 174.189 72.9439 174.624 72.7462C176.791 71.7611 181.438 69.5538 182.87 68.1227C184.302 66.6905 186.508 62.0441 187.493 59.8772C187.691 59.4426 188.305 59.4426 188.503 59.8772C189.487 62.0441 191.694 66.6905 193.127 68.1227Z" fill="#F1CF4A"/>
<path d="M187.996 59.5513C187.794 59.5513 187.59 59.6599 187.491 59.8772C186.506 62.0442 184.299 66.6915 182.868 68.1227C181.436 69.5549 176.789 71.7611 174.622 72.7462C174.188 72.9439 174.188 73.5586 174.622 73.7562C176.789 74.7414 181.437 76.9487 182.868 78.3798C184.3 79.812 186.506 84.4583 187.491 86.6252C187.59 86.8426 187.794 86.9512 187.996 86.9512V59.5513Z" fill="#F1CF4A"/>
<path d="M205.274 57.5623C205.784 58.0724 207.442 58.8599 208.215 59.2118C208.37 59.2821 208.37 59.5015 208.215 59.5719C207.442 59.9237 205.785 60.7102 205.274 61.2214C204.763 61.7315 203.976 63.3893 203.624 64.1623C203.554 64.3176 203.334 64.3176 203.264 64.1623C202.912 63.3893 202.126 61.7326 201.615 61.2214C201.104 60.7112 199.447 59.9237 198.674 59.5719C198.518 59.5015 198.518 59.2821 198.674 59.2118C199.447 58.8599 201.103 58.0735 201.615 57.5623C202.125 57.0521 202.912 55.3943 203.264 54.6213C203.334 54.4661 203.554 54.4661 203.624 54.6213C203.975 55.3943 204.762 57.0521 205.274 57.5623Z" fill="white"/>
</svg>
