<svg width="34" height="35" viewBox="0 0 34 35" fill="none" xmlns="http://www.w3.org/2000/svg">
<path d="M17 29C23.3513 29 28.5 23.8513 28.5 17.5C28.5 11.1487 23.3513 6 17 6C10.6487 6 5.5 11.1487 5.5 17.5C5.5 23.8513 10.6487 29 17 29Z" fill="#58B7C2"/>
<path d="M16.9998 24.6896C20.9706 24.6896 24.1896 21.4706 24.1896 17.4998C24.1896 13.529 20.9706 10.3101 16.9998 10.3101C13.029 10.3101 9.81006 13.529 9.81006 17.4998C9.81006 21.4706 13.029 24.6896 16.9998 24.6896Z" fill="#FFC717"/>
<path d="M16.5654 21.8826V21.1039C15.6599 20.959 14.8268 20.5606 14.0662 19.8724L15.0622 18.659C15.6236 19.148 16.1126 19.4559 16.5654 19.5826V17.9889C15.8229 17.7897 15.2795 17.5362 14.9173 17.2102C14.5732 16.8842 14.3921 16.4133 14.3921 15.8157C14.3921 15.2 14.5914 14.711 14.9898 14.3126C15.3882 13.9141 15.9134 13.6787 16.5654 13.6063V13.0811H17.6882V13.6244C18.3945 13.733 19.1008 14.0228 19.8071 14.5118L18.9378 15.7614C18.4851 15.4354 18.0685 15.2362 17.6882 15.1275V16.6669C18.4488 16.8661 19.0284 17.1377 19.3906 17.4637C19.7528 17.7897 19.9339 18.2787 19.9339 18.8763C19.9339 19.4921 19.7347 19.9992 19.3181 20.3976C18.9016 20.796 18.3583 21.0314 17.6882 21.1039V21.8464H16.5654V21.8826ZM16.5654 15.1094C16.2575 15.2181 16.1126 15.4173 16.1126 15.6889C16.1126 15.9787 16.2575 16.196 16.5654 16.3409V15.1094ZM18.2315 19.0031C18.2315 18.8582 18.1953 18.7314 18.1229 18.6228C18.0504 18.5322 17.9055 18.4236 17.6882 18.3511V19.6551C18.0504 19.5464 18.2315 19.3291 18.2315 19.0031Z" fill="#F99B1C"/>
<path d="M16.9999 23.6936C13.577 23.6936 10.8062 20.9046 10.8062 17.4999C10.8062 14.0951 13.577 11.3062 16.9999 11.3062C20.4227 11.3062 23.1936 14.077 23.1936 17.4999C23.1936 20.9227 20.4227 23.6936 16.9999 23.6936ZM16.9999 11.8313C13.8849 11.8313 11.3313 14.3668 11.3313 17.4999C11.3313 20.6329 13.8668 23.1684 16.9999 23.1684C20.1329 23.1684 22.6684 20.6329 22.6684 17.4999C22.6684 14.3668 20.1148 11.8313 16.9999 11.8313Z" fill="#F99B1C"/>
</svg>
