<svg width="25" height="24" viewBox="0 0 25 24" fill="none" xmlns="http://www.w3.org/2000/svg">
<path d="M22.8855 10.5L13.768 2.82207C13.521 2.61407 13.2084 2.5 12.8855 2.5C12.5626 2.5 12.25 2.61407 12.003 2.82207L2.8855 10.5" stroke="#B5B9BF" stroke-width="1.5" stroke-linecap="round" stroke-linejoin="round"/>
<path d="M21.3855 5V15.5C21.3855 18.3284 21.3855 19.7426 20.5068 20.6213C19.6281 21.5 18.2139 21.5 15.3855 21.5H10.3855C7.55707 21.5 6.14286 21.5 5.26418 20.6213C4.3855 19.7426 4.3855 18.3284 4.3855 15.5V9.5" stroke="#B5B9BF" stroke-width="1.5" stroke-linecap="round" stroke-linejoin="round"/>
<path d="M15.8855 21.5V16.5C15.8855 15.0858 15.8855 14.3787 15.4462 13.9393C15.0068 13.5 14.2997 13.5 12.8855 13.5C11.4713 13.5 10.7642 13.5 10.3248 13.9393C9.8855 14.3787 9.8855 15.0858 9.8855 16.5V21.5" stroke="#B5B9BF" stroke-width="1.5" stroke-linecap="round" stroke-linejoin="round"/>
</svg>
